<svg id="Layer_1" data-name="Layer 1" xmlns="http://www.w3.org/2000/svg" viewBox="0 0 128 128"><defs><style>.cls-1{fill:#9b9b9b;fill-rule:evenodd;}</style></defs><title>dribbblev2Artboard 1</title><path class="cls-1" d="M64,0a64,64,0,1,0,64,64A64,64,0,0,0,64,0Zm42.24,29.44a55,55,0,0,1,12.42,34.05c-1.8-.39-19.84-4-38-1.79-.38-.9-.77-1.92-1.15-2.82-1.15-2.69-2.31-5.38-3.59-7.94C95.87,42.88,105.09,31,106.24,29.44ZM64,9.47a54.94,54.94,0,0,1,36.22,13.7c-1,1.41-9.21,12.41-28.67,19.71a309.4,309.4,0,0,0-20.35-32A59.83,59.83,0,0,1,64,9.47ZM40.7,14.59A354.45,354.45,0,0,1,60.93,46.21a206,206,0,0,1-50.56,6.65A55.31,55.31,0,0,1,40.7,14.59ZM9.34,64.13V62.46a198.21,198.21,0,0,0,56.2-7.8C67.07,57.73,68.61,60.8,70,64c-.64.26-1.41.38-2.18.64-28.16,9.09-43.14,33.92-44.42,36A54.08,54.08,0,0,1,9.34,64.13ZM64,118.66a54.57,54.57,0,0,1-33.54-11.52c1-2,12-23.43,42.88-34.18a.52.52,0,0,1,.39-.13A221.79,221.79,0,0,1,85.38,114.3,54.18,54.18,0,0,1,64,118.66Zm30.46-9.35A226.92,226.92,0,0,0,83.84,70.4a83.12,83.12,0,0,1,34.05,2.3A54.27,54.27,0,0,1,94.46,109.31Z"/></svg>